<svg xmlns="http://www.w3.org/2000/svg" id="SvgjsSvg15552" width="4096" height="3140.7012819882457" version="1.1" xmlns:xlink="http://www.w3.org/1999/xlink" xmlns:svgjs="http://svgjs.com/svgjs"><defs id="SvgjsDefs15553"></defs><g id="SvgjsG15554" transform="translate(328, 328) scale(34.4)" opacity="1"><defs id="SvgjsDefs3720"></defs><g id="SvgjsG3721" transform="scale(0.25352645991537687)" opacity="1"><g id="SvgjsG3722" class="uaB96QhkK" transform="translate(123.52365872349475, -0.0006813350318250735) scale(1.4738671556824687)" light-content="false" fill="#c50d25"><path d="M74.207 84.682c-.302-.303-.423-.728.06-1.15.484-.425 1.755-.79 2.299-1.094.544-.303.485-.183 1.151.18s2.149 1.051 2.906.117c.785-.97 3.022-1.821 4.053-1.823 1.029-.001 2.602-.547 3.631-1.156 1.028-.606 3.268-1.337 4.719-2.247s.664-1.211-.787-1.087c-1.454.121-6.356.917-10.05 1.407-4.333.573-5.091-.238-7.024-1.685-.971-.726-1.213-.967-2.484-.722-8.872 1.703-17.419 1.173-28.335-1.471-2.841 3.396-11.817 5.862-19.181 7.416-4.076.86-4.504 1.844-7.015 4.249-1.33 1.273-5.621 6.607-6.797 8.061-.527.65-1.633 1.396-2.299 1.578-.667.183-1.876.699-2.269 1.155-.381.439-3.267 1.729-3.991 2.155-.602.35-1.095.226-1.395-.181-.424-.573.542-2.302 1.086-2.938.448-.525 1.724-1.184 2.813-1.154 1.089.029 1.724-.336 1.907-1.093.177-.758.601-1.183 1.873-1.608 1.271-.426 4.745-4.033 5.138-5.396-1.029.699-5.352 4.43-5.743 5.247-.392.816-1.632 1.456-2.663 1.607-.827.123-3.932 1.49-4.749 2.036-.495.33-1.061.148-1.061-.572-.001-.908.34-1.649 1.328-2.726.694-.759 2.531-1.323 3.055-.975.701.465.82.369 1.241-.638.633-1.515 2.904-2.031 3.296-2.366 2.983-2.532 5.29-4.761 6.557-7.003.327-.574.514-1.151.815-1.515.302-.363.456-.272.695-.969.415-1.199.773-1.425 2.057-1.427 8.052-.012 10.847-2.805 11.433-5.769 1.237-6.239 2.587-10.658 5.55-12.602.635-.415.666-.546-.001-.907-3.883-2.11-4.063-4.537-1.467-9.079.667-1.163 1.271-1.032 1.15-.123-.119.909-.055 3.511.371 4.841.426 1.331 1.7 3.148 3.697 2.961 1.998-.185 6.84-.554 9.384-.315 2.543.237 12.17.525 15.983.035 6.758-.87 10.951-3.105 9.854-8.854-.535-2.799-1.831-9.623-1.533-12.589.078-.788-.061-.789-.456-1.393-.608-.934-1.071-.721-1.454-1.087-.727-.695-1.91-2.176-2.578-3.326-.613-1.054.209-1.67.542-1.513.516.24.636.18.636-.183-2.546-2.447-4.039-5.319-5.249-8.074-.851-1.937-3.882-5.08-4.46-5.866-.575-.786-.848-1.299-.88-1.966-.031-.665.847-.727.878-.121.031.604.456 1.179 1.123 1.814.667.634 3.184 2.841 3.485 3.325.229.363.37.32.545-.091.687-1.608 2.711-3.74 4.171-5.124.544-.515.604-.998.662-1.454.277-2.095-.065-3.208-1.339-4.932-.275-.372-.092-1.059.636-.425 1.414 1.233 2.224 3.01 2.156 5.052-.015.418.131.807.575.573.696-.364 2.239-1.396 2.844-1.911.452-.385.498-.532.514-.909.027-.758-.002-1.074-.246-1.574-.152-.314.016-.5.242-.288.227.21.652 1.013.834 1.272.183.254.305.194.529-.049 1.073-1.147 2.114-2.999 2.25-3.802.157-.927.77-.893.682.044-.491 5.164-8.158 8.852-11.182 12.186-1.666 1.84-1.507 4.333-.838 6.117.471 1.255 2.487 3.871 4.276 5.049.196.128.241.15.272-.062.106-.764.182-1.486-.337-2.391-.121-.21-.219-.737-.122-1.119.12-.485.12-.576-.033-1.18-.904-3.599-.265-6.005.832-9.052.696-1.928.446-5.935.082-7.145-.207-.682.3-.968.635-.122.526 1.336.943 3.298.978 5.567.006.406.34.382.878.06 1.408-.848 2.995-2.054 3.627-2.791.936-1.088.935-2.602.662-3.403-.124-.358-.139-.621.393-.228.53.394.789 1.708.713 2.178-.061.388.037.438.364.212 1.92-1.334 2.825-3.515 3.124-5.665.143-1.024.694-.759.786-.214.551 3.269-2.854 7.522-5.434 9.091-3.312 2.012-5.685 4.155-5.923 6.94-.169 1.98.485 5.318 1.483 6.765.101.194.259.309.33.055.381-.886.559-2.184.251-3.1-.191-.571-.152-.726.394-.364.545.363.903 1.506.521 4.024-.119.789.062 1.091.668 1.695.608.604.97.484 1.333.24.362-.243.726-.365 1.15.422.426.787.788 1.231 1.637 1.268 1.332.059 2.604.117 3.088.601.819.817.85.727 2 .843 1.15.12 2.361.18 3.027.18.664-.002.79.481 1.516.542.726.06 1.635.057 2.241.601.604.543 1.059 1.21 1.062 1.876 0 .503 0 .589-.24.682-.174.065-.165.229-.136.378.121.635-.646 1.262-1.739 1.455-1.211.214-3.723.732-4.268 1.066-.545.334-1.875 1.274-2.69 1.52-.817.241-.725 1.271-.331 2.3 2.151 5.595 2.927 10.473 3.172 14.463.186 3.027.373 6.659-.107 9.506-.224 1.325-.604 1.271-.207 2.725.294 1.076.038 2.289-.358 3.088-.151.304.241.454.575.454 1.515-.003 8.235.651 9.839.802.812.074 1.075.233 1.183.663.121.484.609 1.392.73 2.178.121.788-.421 1.15-.602 2.364-.129.872-1.209 2.24-3.566 3.454-1.121.577-2.299 1.578-3.146 2.125-.848.546-2.722 1.579-3.206 2.062-.483.485-1.451 1.274-2.056 1.517-.605.243-.788.123-1.634.912-.847.788-3.683 1.185-5.024 1.098-1.815-.119-5.749.008-6.781.01-1.027.002-.907-.726-.605-1.331-.064-.455.572-.699.843-.97z"></path></g><g id="SvgjsG3723" class="text" transform="translate(197, 223.3176628279768) scale(1)" light-content="false" fill="#c50d25"><path d="M-197 0L-175.33 0L-175.33 -10.2L-186.32 -10.2L-186.32 -22.23L-176.43 -22.23L-176.43 -32.12L-186.32 -32.12L-186.32 -42.31L-176 -42.31L-176 -52.45L-197 -52.45Z M-148.71 0L-134.36 0L-127.89 -52.51L-137.9 -52.51L-141.32 -16.79L-145.17 -52.51L-155.18 -52.51Z M-106.58 0L-84.9 0L-84.9 -10.2L-95.89 -10.2L-95.89 -22.23L-86 -22.23L-86 -32.12L-95.89 -32.12L-95.89 -42.31L-85.57 -42.31L-85.57 -52.45L-106.58 -52.45Z M-63.1 -52.45L-63.1 0L-52.48 0L-52.48 -23.93C-50.97 -23.93 -49.94 -23.73 -49.37 -23.32C-48.8 -22.92 -48.51 -21.98 -48.51 -20.52L-48.51 0L-38.25 0L-38.13 -19.84C-38.13 -22 -38.49 -23.71 -39.2 -24.97C-39.91 -26.23 -41.06 -27.03 -42.65 -27.35C-40.74 -28.01 -39.39 -29.17 -38.62 -30.83C-37.85 -32.5 -37.46 -34.82 -37.46 -37.8C-37.46 -41.05 -37.7 -43.73 -38.19 -45.82C-38.68 -47.92 -39.63 -49.55 -41.03 -50.71C-42.44 -51.87 -44.42 -52.45 -46.98 -52.45ZM-49.92 -33.03L-52.42 -33.03L-52.42 -42.74L-49.98 -42.74C-49.37 -42.74 -48.9 -42.61 -48.57 -42.34C-48.25 -42.08 -48.02 -41.6 -47.9 -40.91C-47.78 -40.22 -47.72 -39.18 -47.72 -37.8C-47.72 -34.62 -48.45 -33.03 -49.92 -33.03Z M-15.66 0L5.65 0L5.65 -8.91L-5.16 -8.91L-5.16 -52.45L-15.66 -52.45Z M25.49 0L35.69 0L36.3 -8.49L42.65 -8.49L43.38 0L53.33 0L48.33 -52.45L30.56 -52.45ZM37.09 -16.85L39.05 -43.53L39.54 -43.53L41.86 -16.85Z M74.83 0L85.08 0L85.08 -26.26L90.34 0L100.59 0L100.59 -52.45L90.46 -52.45L90.46 -27.35L85.63 -52.45L74.83 -52.45Z M123.55 -52.45L123.55 0L137.66 0C141.89 0 144.92 -1.3 146.75 -3.91C148.59 -6.51 149.48 -10.4 149.44 -15.57L149.32 -40.12C149.28 -44.19 148.32 -47.26 146.45 -49.34C144.58 -51.41 141.77 -52.45 138.02 -52.45ZM135.95 -9.28L134.11 -9.28L134.11 -43.29L135.27 -43.29C136.29 -43.29 137.05 -43.19 137.53 -42.98C138.02 -42.78 138.36 -42.38 138.54 -41.79C138.72 -41.2 138.82 -40.32 138.82 -39.14L138.82 -12.09C138.82 -10.22 137.86 -9.28 135.95 -9.28Z M174.84 -3.39C177.04 -0.8 180.25 0.49 184.49 0.49C188.72 0.49 191.94 -0.79 194.13 -3.36C196.33 -5.92 197.43 -9.57 197.43 -14.29L197.43 -39.26C197.43 -43.78 196.33 -47.19 194.13 -49.49C191.94 -51.79 188.72 -52.94 184.49 -52.94C180.25 -52.94 177.04 -51.79 174.84 -49.49C172.64 -47.19 171.54 -43.78 171.54 -39.26L171.54 -14.29C171.54 -9.61 172.64 -5.97 174.84 -3.39ZM186.38 -10.38C186.05 -9.57 185.42 -9.16 184.49 -9.16C183.51 -9.16 182.84 -9.55 182.47 -10.32C182.11 -11.09 181.92 -12.23 181.92 -13.74L181.92 -39.32C181.92 -41.97 182.8 -43.29 184.55 -43.29C185.48 -43.29 186.11 -42.93 186.41 -42.22C186.72 -41.51 186.87 -40.58 186.87 -39.44L186.87 -13.8C186.87 -12.33 186.71 -11.19 186.38 -10.38Z"></path></g><rect id="SvgjsRect3724" width="88.50580822599623" height="1.908069596334941" fill="#333333" transform="translate(0, 264.8461885425196) scale(1)" light-content="false"></rect><g id="SvgjsG3725" class="text" transform="translate(195.97650418934563, 276.1204466813744) scale(1)" light-content="false" fill="#333333"><path d="M-85.57 -19.3L-86.82 -13.84L-83.1 -13.84L-88.39 8.78L-82.09 8.78L-76.82 -13.84L-72.68 -13.84L-71.41 -19.3L-75.53 -19.3L-74.95 -21.78C-74.78 -22.52 -74.45 -23.07 -73.97 -23.44C-73.48 -23.81 -72.96 -24 -72.4 -24C-71.93 -24 -71.57 -23.94 -71.31 -23.83C-71.06 -23.72 -70.82 -23.56 -70.61 -23.35L-67.18 -27.67C-67.28 -27.84 -67.47 -28.03 -67.75 -28.24C-68.03 -28.44 -68.38 -28.63 -68.81 -28.81C-69.24 -28.98 -69.75 -29.13 -70.33 -29.25C-70.92 -29.36 -71.57 -29.42 -72.29 -29.42C-73.33 -29.42 -74.33 -29.29 -75.27 -29.02C-76.21 -28.75 -77.07 -28.34 -77.83 -27.76C-78.6 -27.19 -79.26 -26.47 -79.82 -25.59C-80.38 -24.72 -80.79 -23.68 -81.07 -22.47L-81.81 -19.3Z M-72.14 -8.12C-72.14 -6.94 -71.92 -5.83 -71.48 -4.79C-71.04 -3.75 -70.43 -2.84 -69.64 -2.06C-68.86 -1.28 -67.94 -0.67 -66.88 -0.21C-65.81 0.24 -64.66 0.47 -63.4 0.47C-61.74 0.47 -60.19 0.17 -58.75 -0.41C-57.32 -0.99 -56.07 -1.81 -55.02 -2.85C-53.98 -3.89 -53.15 -5.13 -52.55 -6.56C-51.94 -7.99 -51.64 -9.55 -51.64 -11.25C-51.64 -12.46 -51.87 -13.59 -52.31 -14.64C-52.76 -15.69 -53.38 -16.6 -54.16 -17.38C-54.94 -18.15 -55.86 -18.76 -56.93 -19.21C-57.99 -19.66 -59.13 -19.88 -60.34 -19.88C-61.92 -19.88 -63.42 -19.6 -64.84 -19.04C-66.27 -18.48 -67.52 -17.69 -68.6 -16.67C-69.68 -15.64 -70.54 -14.41 -71.18 -12.96C-71.82 -11.51 -72.14 -9.9 -72.14 -8.12ZM-66.07 -8.81C-66.07 -9.57 -65.93 -10.28 -65.66 -10.95C-65.4 -11.61 -65.04 -12.19 -64.58 -12.69C-64.13 -13.19 -63.6 -13.58 -62.98 -13.87C-62.37 -14.16 -61.7 -14.31 -61 -14.31C-60.55 -14.31 -60.13 -14.23 -59.73 -14.08C-59.33 -13.92 -58.98 -13.69 -58.69 -13.38C-58.39 -13.07 -58.15 -12.68 -57.97 -12.21C-57.79 -11.75 -57.7 -11.2 -57.7 -10.57C-57.7 -9.8 -57.84 -9.08 -58.13 -8.41C-58.41 -7.75 -58.79 -7.17 -59.27 -6.68C-59.75 -6.19 -60.29 -5.8 -60.9 -5.52C-61.51 -5.25 -62.14 -5.11 -62.79 -5.11C-63.26 -5.11 -63.7 -5.2 -64.1 -5.38C-64.5 -5.56 -64.85 -5.81 -65.14 -6.14C-65.43 -6.47 -65.66 -6.86 -65.82 -7.31C-65.98 -7.77 -66.07 -8.27 -66.07 -8.81Z M-50.11 -8.12C-50.11 -6.94 -49.89 -5.83 -49.45 -4.79C-49.01 -3.75 -48.4 -2.84 -47.62 -2.06C-46.84 -1.28 -45.91 -0.67 -44.85 -0.21C-43.79 0.24 -42.63 0.47 -41.38 0.47C-39.71 0.47 -38.16 0.17 -36.73 -0.41C-35.29 -0.99 -34.05 -1.81 -33 -2.85C-31.95 -3.89 -31.12 -5.13 -30.52 -6.56C-29.92 -7.99 -29.62 -9.55 -29.62 -11.25C-29.62 -12.46 -29.84 -13.59 -30.29 -14.64C-30.74 -15.69 -31.35 -16.6 -32.13 -17.38C-32.92 -18.15 -33.84 -18.76 -34.9 -19.21C-35.96 -19.66 -37.1 -19.88 -38.32 -19.88C-39.9 -19.88 -41.4 -19.6 -42.82 -19.04C-44.24 -18.48 -45.49 -17.69 -46.57 -16.67C-47.66 -15.64 -48.52 -14.41 -49.16 -12.96C-49.79 -11.51 -50.11 -9.9 -50.11 -8.12ZM-44.04 -8.81C-44.04 -9.57 -43.91 -10.28 -43.64 -10.95C-43.37 -11.61 -43.01 -12.19 -42.56 -12.69C-42.11 -13.19 -41.57 -13.58 -40.96 -13.87C-40.34 -14.16 -39.68 -14.31 -38.97 -14.31C-38.52 -14.31 -38.1 -14.23 -37.7 -14.08C-37.31 -13.92 -36.96 -13.69 -36.66 -13.38C-36.36 -13.07 -36.12 -12.68 -35.94 -12.21C-35.76 -11.75 -35.67 -11.2 -35.67 -10.57C-35.67 -9.8 -35.82 -9.08 -36.1 -8.41C-36.39 -7.75 -36.77 -7.17 -37.25 -6.68C-37.73 -6.19 -38.27 -5.8 -38.88 -5.52C-39.49 -5.25 -40.11 -5.11 -40.76 -5.11C-41.23 -5.11 -41.67 -5.2 -42.07 -5.38C-42.48 -5.56 -42.83 -5.81 -43.12 -6.14C-43.41 -6.47 -43.64 -6.86 -43.8 -7.31C-43.96 -7.77 -44.04 -8.27 -44.04 -8.81Z M-27.29 -19.3L-28.46 -14.2L-24.9 -14.2L-26.86 -5.87C-27.16 -4.65 -27.27 -3.64 -27.19 -2.82C-27.11 -2.01 -26.87 -1.36 -26.48 -0.88C-26.09 -0.39 -25.55 -0.05 -24.88 0.16C-24.2 0.36 -23.41 0.47 -22.52 0.47C-21.96 0.47 -21.44 0.44 -20.96 0.4C-20.48 0.36 -20.03 0.3 -19.6 0.21C-19.17 0.13 -18.77 0.03 -18.38 -0.09C-18 -0.22 -17.61 -0.35 -17.21 -0.5L-17.28 -4.77C-17.63 -4.67 -17.96 -4.6 -18.26 -4.55C-18.57 -4.5 -18.85 -4.47 -19.11 -4.47C-19.43 -4.47 -19.71 -4.56 -19.96 -4.74C-20.2 -4.92 -20.33 -5.22 -20.36 -5.63C-20.38 -6.04 -20.3 -6.59 -20.11 -7.29L-18.49 -14.2L-14.92 -14.2L-13.74 -19.3L-17.28 -19.3L-15.46 -26.98L-22.59 -23.93L-23.69 -19.3Z M-11.66 -19.3L-12.83 -14.2L-10.93 -14.2L-9.4 0L-3.36 0L3.34 -11.44L3.42 -11.44L4.65 0L10.91 0L19.46 -14.2L21.25 -14.2L22.43 -19.3L12.89 -19.3L11.71 -14.2L13.43 -14.2L9.61 -7.57L8.47 -19.3L2.25 -19.3L-4.09 -8.31L-4.54 -14.2L-3.29 -14.2L-2.11 -19.3Z M27.74 -8.2L41.51 -8.2C41.59 -8.47 41.67 -8.77 41.75 -9.09C41.82 -9.42 41.88 -9.74 41.93 -10.07C41.98 -10.4 42.02 -10.72 42.05 -11.03C42.07 -11.34 42.08 -11.62 42.08 -11.87C42.08 -12.91 41.87 -13.92 41.44 -14.89C41.01 -15.86 40.42 -16.71 39.65 -17.45C38.89 -18.19 37.98 -18.78 36.92 -19.22C35.87 -19.66 34.71 -19.88 33.46 -19.88C31.88 -19.88 30.38 -19.6 28.96 -19.03C27.53 -18.47 26.28 -17.67 25.2 -16.63C24.12 -15.59 23.26 -14.35 22.62 -12.89C21.98 -11.44 21.66 -9.83 21.66 -8.05C21.66 -6.73 21.89 -5.55 22.36 -4.49C22.83 -3.43 23.46 -2.54 24.25 -1.8C25.05 -1.06 25.98 -0.49 27.05 -0.09C28.11 0.3 29.26 0.5 30.48 0.5C32.36 0.5 34.13 0.19 35.77 -0.44C37.41 -1.07 38.85 -2.05 40.11 -3.39L36.01 -6.99C35.67 -6.69 35.34 -6.42 34.99 -6.17C34.65 -5.92 34.29 -5.7 33.92 -5.52C33.55 -5.34 33.16 -5.2 32.74 -5.11C32.32 -5.01 31.87 -4.96 31.37 -4.96C30.7 -4.96 30.13 -5.06 29.66 -5.26C29.18 -5.47 28.8 -5.75 28.51 -6.1C28.22 -6.46 28.01 -6.87 27.89 -7.34C27.81 -7.61 27.76 -7.9 27.74 -8.2ZM28.54 -12.67C28.8 -13.19 29.14 -13.63 29.57 -13.98C30 -14.34 30.5 -14.61 31.06 -14.79C31.63 -14.98 32.22 -15.07 32.84 -15.07C33.36 -15.07 33.84 -15 34.27 -14.84C34.7 -14.69 35.07 -14.48 35.39 -14.24C35.7 -13.99 35.96 -13.7 36.15 -13.39C36.34 -13.07 36.45 -12.75 36.48 -12.41L28.41 -12.41C28.44 -12.5 28.49 -12.58 28.54 -12.67Z M56.36 -1.47L56.02 0L65.9 0L67.09 -5.11L63.53 -5.11L66.83 -19.3L60.49 -19.3L60.27 -18.35C59.57 -18.85 58.97 -19.17 58.44 -19.32C57.92 -19.47 57.46 -19.58 57.06 -19.66C56.65 -19.73 56.16 -19.77 55.59 -19.77C54.57 -19.77 53.57 -19.65 52.58 -19.41C51.6 -19.16 50.66 -18.81 49.77 -18.35C48.88 -17.89 48.06 -17.33 47.31 -16.66C46.56 -15.99 45.91 -15.22 45.36 -14.36C44.82 -13.49 44.39 -12.54 44.08 -11.51C43.77 -10.47 43.61 -9.35 43.61 -8.16C43.61 -6.78 43.84 -5.57 44.31 -4.51C44.78 -3.45 45.38 -2.57 46.14 -1.85C46.89 -1.14 47.75 -0.6 48.72 -0.24C49.69 0.12 50.67 0.3 51.68 0.3C52.77 0.3 53.72 0.12 54.53 -0.24C55.29 -0.58 55.9 -0.99 56.36 -1.47ZM57.05 -6.93C56.7 -6.6 56.33 -6.32 55.93 -6.1C55.53 -5.89 55.12 -5.72 54.69 -5.62C54.26 -5.51 53.84 -5.46 53.43 -5.46C52.95 -5.46 52.49 -5.53 52.07 -5.68C51.65 -5.83 51.28 -6.06 50.95 -6.35C50.63 -6.65 50.38 -7.02 50.19 -7.47C50 -7.92 49.91 -8.44 49.91 -9.04C49.91 -9.75 50.05 -10.41 50.32 -11.03C50.59 -11.65 50.96 -12.19 51.41 -12.64C51.86 -13.1 52.39 -13.46 53 -13.72C53.61 -13.99 54.25 -14.12 54.92 -14.12C55.34 -14.12 55.76 -14.07 56.18 -13.97C56.6 -13.86 56.98 -13.71 57.34 -13.51C57.69 -13.31 57.98 -13.08 58.22 -12.81C58.46 -12.54 58.65 -12.27 58.8 -11.98L57.87 -7.96Z M89.11 -11.8L90.87 -19.3L85.57 -19.3C84.52 -19.3 83.6 -19.13 82.82 -18.78C82.11 -18.47 81.5 -18.09 80.99 -17.63L81.36 -19.3L71.49 -19.3L70.29 -14.2L73.85 -14.2L70.57 0L80.99 0L82.16 -5.11L78.12 -5.11L79.72 -11.98C79.93 -12.19 80.15 -12.38 80.36 -12.56C80.67 -12.82 80.99 -13.04 81.32 -13.21C81.65 -13.39 81.99 -13.52 82.34 -13.6C82.7 -13.69 83.08 -13.73 83.51 -13.73L83.04 -11.8Z"></path></g><rect id="SvgjsRect3726" width="88.50580822599622" height="1.908069596334941" fill="#333333" transform="translate(305.9303387283628, 264.8461885425196) scale(1)" light-content="false"></rect></g></g></svg>